<svg width="24" height="24" viewBox="0 0 24 24" fill="none" xmlns="http://www.w3.org/2000/svg">
  <rect width="24" height="24" rx="6" fill="#3B82F6"/>
  <g transform="translate(4, 4) scale(0.625)">
    <path d="M16 4H4C3.4 4 3 4.4 3 5V19C3 19.6 3.4 20 4 20H16C16.6 20 17 19.6 17 19V5C17 4.4 16.6 4 16 4Z" fill="white"/>
    <path d="M14 22H6L10 18L14 22Z" fill="white"/>
    <path d="M6 7H14V8H6V7Z" fill="#3B82F6"/>
    <path d="M6 10H14V11H6V10Z" fill="#3B82F6"/>
    <path d="M6 13H11V14H6V13Z" fill="#3B82F6"/>
  </g>
</svg>